<svg width="25" height="26" viewBox="0 0 25 26" fill="none" xmlns="http://www.w3.org/2000/svg">
<path d="M23.6856 17.0902L21.2856 14.7817V9.0936C21.3175 6.98137 20.5494 4.92941 19.1231 3.31661C17.6968 1.70382 15.7086 0.639103 13.5256 0.319068C12.2587 0.159478 10.9708 0.260165 9.74776 0.614412C8.52475 0.96866 7.39478 1.56832 6.43325 2.37338C5.47172 3.17845 4.70075 4.1704 4.17176 5.28305C3.64278 6.39571 3.36795 7.60348 3.36562 8.82578V14.7817L0.965618 17.0902C0.664159 17.3833 0.45973 17.755 0.377885 18.1587C0.296041 18.5624 0.340413 18.9802 0.505455 19.3599C0.670497 19.7396 0.948886 20.0643 1.30582 20.2935C1.66275 20.5227 2.08239 20.6461 2.51228 20.6484H6.99228V21.0821C7.05456 22.3768 7.65089 23.5952 8.65059 24.4701C9.65028 25.3451 10.9718 25.8053 12.3256 25.7499C13.6794 25.8053 15.001 25.3451 16.0007 24.4701C17.0003 23.5952 17.5967 22.3768 17.659 21.0821V20.6484H22.139C22.5688 20.6461 22.9885 20.5227 23.3454 20.2935C23.7024 20.0643 23.9807 19.7396 24.1458 19.3599C24.3108 18.9802 24.3552 18.5624 24.2734 18.1587C24.1915 17.755 23.9871 17.3833 23.6856 17.0902ZM14.9923 21.0821C14.9183 21.6955 14.5998 22.258 14.103 22.6524C13.6063 23.0468 12.9696 23.2427 12.3256 23.1992C11.6816 23.2427 11.045 23.0468 10.5482 22.6524C10.0514 22.258 9.7329 21.6955 9.65895 21.0821V20.6484H14.9923V21.0821ZM3.67229 18.0977L5.24562 16.5928C5.49518 16.3555 5.69317 16.0733 5.82818 15.7625C5.9632 15.4516 6.03256 15.1183 6.03229 14.7817V8.82578C6.03301 7.96541 6.22613 7.11515 6.59868 6.33206C6.97122 5.54897 7.51458 4.85116 8.19228 4.28546C8.86084 3.70604 9.65305 3.2725 10.5141 3.01486C11.3751 2.75721 12.2844 2.68161 13.179 2.79328C14.7209 3.03277 16.1206 3.79701 17.1201 4.94531C18.1197 6.09362 18.652 7.54867 18.619 9.04259V14.7817C18.6169 15.1174 18.6842 15.4502 18.8169 15.761C18.9496 16.0718 19.1451 16.3544 19.3923 16.5928L20.979 18.0977H3.67229Z" fill="white"/>
</svg>
