<svg width="37" height="38" viewBox="0 0 37 38" fill="none" xmlns="http://www.w3.org/2000/svg">
<path d="M14.7887 0.535785C16.2052 0.772586 17.1658 2.1199 16.9297 3.5407L16.1319 8.34205H23.8737L24.8099 2.68332C25.046 1.26252 26.3892 0.298984 27.8057 0.535785C29.2222 0.772586 30.1828 2.1199 29.9467 3.5407L29.1571 8.34205H33.895C35.3359 8.34205 36.5 9.50972 36.5 10.955C36.5 12.4003 35.3359 13.568 33.895 13.568H28.286L26.552 24.0199H31.2899C32.7308 24.0199 33.895 25.1876 33.895 26.6329C33.895 28.0782 32.7308 29.2458 31.2899 29.2458H25.681L24.7448 34.9046C24.5087 36.3254 23.1655 37.2889 21.749 37.0521C20.3325 36.8153 19.3719 35.468 19.608 34.0472L20.4058 29.254H12.6558L11.7196 34.9127C11.4835 36.3335 10.1403 37.2971 8.72384 37.0603C7.30735 36.8235 6.34674 35.4762 6.58283 34.0553L7.37248 29.2458H2.63457C1.19366 29.2458 0.029541 28.0782 0.029541 26.6329C0.029541 25.1876 1.19366 24.0199 2.63457 24.0199H8.24353L9.97751 13.568H5.23961C3.7987 13.568 2.63457 12.4003 2.63457 10.955C2.63457 9.50972 3.7987 8.34205 5.23961 8.34205H10.8486L11.7847 2.68332C12.0208 1.26252 13.364 0.298984 14.7805 0.535785H14.7887ZM15.2608 13.568L13.5269 24.0199H21.2687L23.0027 13.568H15.2608Z" fill="#463BC1"/>
</svg>
