<svg width="28" height="28" viewBox="0 0 28 28" fill="none" xmlns="http://www.w3.org/2000/svg">
<path fill-rule="evenodd" clip-rule="evenodd" d="M11.1836 0.183981C11.7857 0.0033527 12.4217 -0.0340132 13.0408 0.0748661C13.66 0.183745 14.2451 0.435854 14.7495 0.811069C15.2538 1.18628 15.6635 1.67421 15.9458 2.23591C16.2281 2.79761 16.3751 3.41752 16.3752 4.04615V23.7052C16.3751 24.3338 16.2281 24.9537 15.9458 25.5154C15.6635 26.0771 15.2538 26.5651 14.7495 26.9403C14.2451 27.3155 13.66 27.5676 13.0408 27.6765C12.4217 27.7854 11.7857 27.748 11.1836 27.5674L3.11776 25.1476C2.28712 24.8984 1.55893 24.3881 1.0412 23.6924C0.523473 22.9967 0.243795 22.1527 0.243652 21.2854V6.46589C0.243795 5.59868 0.523473 4.75461 1.0412 4.0589C1.55893 3.36319 2.28712 2.8529 3.11776 2.60372L11.1836 0.183981ZM17.7195 3.12127C17.7195 2.76474 17.8612 2.42282 18.1133 2.17071C18.3654 1.91861 18.7073 1.77698 19.0638 1.77698H23.0967C24.1663 1.77698 25.1921 2.20187 25.9484 2.95818C26.7047 3.7145 27.1296 4.74028 27.1296 5.80987V7.15417C27.1296 7.5107 26.988 7.85263 26.7359 8.10474C26.4838 8.35684 26.1419 8.49847 25.7853 8.49847C25.4288 8.49847 25.0869 8.35684 24.8348 8.10474C24.5827 7.85263 24.441 7.5107 24.441 7.15417V5.80987C24.441 5.45334 24.2994 5.11142 24.0473 4.85931C23.7952 4.60721 23.4533 4.46557 23.0967 4.46557H19.0638C18.7073 4.46557 18.3654 4.32394 18.1133 4.07184C17.8612 3.81973 17.7195 3.47781 17.7195 3.12127ZM25.7853 19.2529C26.1419 19.2529 26.4838 19.3945 26.7359 19.6466C26.988 19.8987 27.1296 20.2406 27.1296 20.5972V21.9415C27.1296 23.0111 26.7047 24.0368 25.9484 24.7932C25.1921 25.5495 24.1663 25.9744 23.0967 25.9744H19.0638C18.7073 25.9744 18.3654 25.8327 18.1133 25.5806C17.8612 25.3285 17.7195 24.9866 17.7195 24.6301C17.7195 24.2735 17.8612 23.9316 18.1133 23.6795C18.3654 23.4274 18.7073 23.2858 19.0638 23.2858H23.0967C23.4533 23.2858 23.7952 23.1441 24.0473 22.892C24.2994 22.6399 24.441 22.298 24.441 21.9415V20.5972C24.441 20.2406 24.5827 19.8987 24.8348 19.6466C25.0869 19.3945 25.4288 19.2529 25.7853 19.2529ZM9.65375 12.5314C9.29722 12.5314 8.95529 12.673 8.70319 12.9251C8.45108 13.1772 8.30945 13.5191 8.30945 13.8757C8.30945 14.2322 8.45108 14.5741 8.70319 14.8262C8.95529 15.0783 9.29722 15.22 9.65375 15.22H9.65509C10.0116 15.22 10.3535 15.0783 10.6057 14.8262C10.8578 14.5741 10.9994 14.2322 10.9994 13.8757C10.9994 13.5191 10.8578 13.1772 10.6057 12.9251C10.3535 12.673 10.0116 12.5314 9.65509 12.5314H9.65375Z" fill="white"/>
<path d="M19.064 13.8757H25.7855M25.7855 13.8757L23.0969 11.1871M25.7855 13.8757L23.0969 16.5643" stroke="white" stroke-width="2.6886" stroke-linecap="round" stroke-linejoin="round"/>
</svg>
