<svg width="32" height="31" viewBox="0 0 32 31" fill="none" xmlns="http://www.w3.org/2000/svg">
<path fill-rule="evenodd" clip-rule="evenodd" d="M0.369934 5.4447C0.369934 4.19227 0.86746 2.99114 1.75306 2.10554C2.63866 1.21994 3.83979 0.722412 5.09222 0.722412H27.1296C28.382 0.722412 29.5831 1.21994 30.4687 2.10554C31.3543 2.99114 31.8519 4.19227 31.8519 5.4447V21.1857C31.8519 22.4381 31.3543 23.6392 30.4687 24.5248C29.5831 25.4104 28.382 25.908 27.1296 25.908H8.76459L3.51813 29.8432C2.22107 30.816 0.369934 29.8904 0.369934 28.2691V5.4447ZM8.24042 10.167C8.24042 9.74952 8.40626 9.34914 8.70146 9.05394C8.99666 8.75874 9.39704 8.5929 9.81451 8.5929H22.4073C22.8248 8.5929 23.2251 8.75874 23.5203 9.05394C23.8155 9.34914 23.9814 9.74952 23.9814 10.167C23.9814 10.5845 23.8155 10.9848 23.5203 11.28C23.2251 11.5752 22.8248 11.7411 22.4073 11.7411H9.81451C9.39704 11.7411 8.99666 11.5752 8.70146 11.28C8.40626 10.9848 8.24042 10.5845 8.24042 10.167ZM9.81451 14.8893C9.39704 14.8893 8.99666 15.0551 8.70146 15.3503C8.40626 15.6455 8.24042 16.0459 8.24042 16.4634C8.24042 16.8809 8.40626 17.2812 8.70146 17.5764C8.99666 17.8716 9.39704 18.0375 9.81451 18.0375H14.5368C14.9543 18.0375 15.3547 17.8716 15.6499 17.5764C15.9451 17.2812 16.1109 16.8809 16.1109 16.4634C16.1109 16.0459 15.9451 15.6455 15.6499 15.3503C15.3547 15.0551 14.9543 14.8893 14.5368 14.8893H9.81451Z" fill="#463BC1"/>
</svg>
