<svg width="38" height="29" viewBox="0 0 38 29" fill="none" xmlns="http://www.w3.org/2000/svg">
<path fill-rule="evenodd" clip-rule="evenodd" d="M0 4.56207C0 2.31145 1.82659 0.484863 4.07721 0.484863H33.2001C35.4508 0.484863 37.2773 2.31145 37.2773 4.56207V24.6596C37.2773 25.741 36.8478 26.778 36.0832 27.5426C35.3185 28.3073 34.2815 28.7368 33.2001 28.7368H4.07721C2.99587 28.7368 1.95881 28.3073 1.19419 27.5426C0.429562 26.778 0 25.741 0 24.6596L0 4.56207ZM4.07721 3.97961H33.2001C33.3546 3.97961 33.5028 4.04098 33.612 4.15021C33.7212 4.25944 33.7826 4.4076 33.7826 4.56207V5.58425V8.9821V24.6596C33.7826 24.8141 33.7212 24.9622 33.612 25.0715C33.5028 25.1807 33.3546 25.2421 33.2001 25.2421H4.07721C3.92273 25.2421 3.77458 25.1807 3.66535 25.0715C3.55612 24.9622 3.49475 24.8141 3.49475 24.6596V8.9821V5.58425V4.56207C3.49475 4.4076 3.55612 4.25944 3.66535 4.15021C3.77458 4.04098 3.92273 3.97961 4.07721 3.97961Z" fill="#463BC1"/>
<path d="M3.49475 8.9821C8.0284 11.838 17.7226 18.2487 18.0802 18.4275C18.5272 18.651 19.5966 18.6753 19.9472 18.4275C20.2277 18.2293 29.1085 11.8299 33.7826 8.9821V5.58425C29.1669 8.53951 20.368 14.6621 19.9472 14.9601C19.4213 15.3326 18.6017 15.3326 18.0802 14.9601C17.663 14.6621 8.00356 8.53951 3.49475 5.58425V8.9821Z" fill="#463BC1"/>
</svg>
