<svg width="46" height="38" viewBox="0 0 46 38" fill="none" xmlns="http://www.w3.org/2000/svg">
<g clip-path="url(#clip0_1_268)">
<path d="M13.6366 19.018C18.033 19.018 21.5913 15.4597 21.5913 11.0633C21.5913 6.66694 18.033 3.10864 13.6366 3.10864C9.24021 3.10864 5.68192 6.66694 5.68192 11.0633C5.68192 15.4597 9.24021 19.018 13.6366 19.018ZM19.0912 21.2908H18.5017C17.0244 22.001 15.3838 22.4272 13.6366 22.4272C11.8894 22.4272 10.2559 22.001 8.77146 21.2908H8.18196C3.66484 21.2908 0 24.9556 0 29.4727V31.5182C0 33.4004 1.52701 34.9274 3.40915 34.9274H23.864C25.7462 34.9274 27.2732 33.4004 27.2732 31.5182V29.4727C27.2732 24.9556 23.6084 21.2908 19.0912 21.2908ZM34.0915 19.018C37.8558 19.018 40.9098 15.964 40.9098 12.1997C40.9098 8.43544 37.8558 5.38141 34.0915 5.38141C30.3272 5.38141 27.2732 8.43544 27.2732 12.1997C27.2732 15.964 30.3272 19.018 34.0915 19.018ZM37.5006 21.2908H37.2308C36.2435 21.6317 35.1995 21.859 34.0915 21.859C32.9835 21.859 31.9395 21.6317 30.9522 21.2908H30.6823C29.2335 21.2908 27.8982 21.7098 26.7263 22.3845C28.4593 24.2525 29.546 26.7312 29.546 29.4727V32.2C29.546 32.3563 29.5104 32.5054 29.5033 32.6546H42.0462C43.9283 32.6546 45.4553 31.1276 45.4553 29.2455C45.4553 24.8491 41.897 21.2908 37.5006 21.2908Z" fill="#463BC1"/>
</g>
<defs>
<clipPath id="clip0_1_268">
<rect width="45.4553" height="36.3643" fill="white" transform="translate(0 0.835815)"/>
</clipPath>
</defs>
</svg>
