<svg width="38" height="39" viewBox="0 0 38 39" fill="none" xmlns="http://www.w3.org/2000/svg">
<g clip-path="url(#clip0_1_279)">
<path fill-rule="evenodd" clip-rule="evenodd" d="M0 4.95953C0 2.70891 1.82659 0.882324 4.07721 0.882324H33.2001C35.4508 0.882324 37.2773 2.70891 37.2773 4.95953V34.0825C37.2773 35.1638 36.8478 36.2009 36.0832 36.9655C35.3185 37.7301 34.2815 38.1597 33.2001 38.1597H4.07721C2.99587 38.1597 1.95881 37.7301 1.19419 36.9655C0.429562 36.2009 0 35.1638 0 34.0825L0 4.95953ZM4.07721 14.5306C4.23169 14.5306 33.2001 14.5306 33.2001 14.5306C33.3546 14.5306 33.5028 14.592 33.612 14.7012C33.7212 14.8105 33.7826 14.9586 33.7826 15.1131V34.0825C33.7826 34.2369 33.7212 34.3851 33.612 34.4943C33.5028 34.6035 33.3546 34.6649 33.2001 34.6649H4.07721C3.92273 34.6649 3.77458 34.6035 3.66535 34.4943C3.55612 34.3851 3.49475 34.2369 3.49475 34.0825C3.49475 34.0825 3.49475 15.2676 3.49475 15.1131C3.49475 14.9586 3.66535 14.7012 3.66535 14.7012C3.66535 14.7012 3.92273 14.5306 4.07721 14.5306Z" fill="#463BC1"/>
<circle cx="9.43811" cy="20.1857" r="2.34387" fill="#463BC1"/>
<circle cx="18.6383" cy="20.1857" r="2.34387" fill="#463BC1"/>
<circle cx="27.839" cy="20.1857" r="2.34387" fill="#463BC1"/>
<circle cx="9.43811" cy="28.7389" r="2.34387" fill="#463BC1"/>
<circle cx="18.6383" cy="28.7389" r="2.34387" fill="#463BC1"/>
<circle cx="27.839" cy="28.7389" r="2.34387" fill="#463BC1"/>
</g>
<defs>
<clipPath id="clip0_1_279">
<rect width="37.2773" height="37.2773" fill="white" transform="translate(0 0.882324)"/>
</clipPath>
</defs>
</svg>
