<svg width="38" height="38" viewBox="0 0 38 38" fill="none" xmlns="http://www.w3.org/2000/svg">
<g clip-path="url(#clip0_1_270)">
<path d="M11.0667 16.5525C10.6033 16.5525 10.1588 16.7366 9.83113 17.0643C9.50343 17.392 9.31934 17.8364 9.31934 18.2999C9.31934 18.7633 9.50343 19.2077 9.83113 19.5354C10.1588 19.8631 10.6033 20.0472 11.0667 20.0472H21.551C22.0144 20.0472 22.4588 19.8631 22.7865 19.5354C23.1142 19.2077 23.2983 18.7633 23.2983 18.2999C23.2983 17.8364 23.1142 17.392 22.7865 17.0643C22.4588 16.7366 22.0144 16.5525 21.551 16.5525H11.0667ZM11.6492 11.3104C11.6492 10.8469 11.8333 10.4025 12.161 10.0748C12.4887 9.74709 12.9331 9.56299 13.3965 9.56299H26.2106C26.6741 9.56299 27.1185 9.74709 27.4462 10.0748C27.7739 10.4025 27.958 10.8469 27.958 11.3104C27.958 11.7738 27.7739 12.2182 27.4462 12.5459C27.1185 12.8736 26.6741 13.0577 26.2106 13.0577H13.3965C12.9331 13.0577 12.4887 12.8736 12.161 12.5459C11.8333 12.2182 11.6492 11.7738 11.6492 11.3104ZM15.7264 23.542C15.2629 23.542 14.8185 23.7261 14.4908 24.0538C14.1631 24.3815 13.979 24.8259 13.979 25.2894C13.979 25.7528 14.1631 26.1973 14.4908 26.5249C14.8185 26.8526 15.2629 27.0367 15.7264 27.0367H26.2106C26.6741 27.0367 27.1185 26.8526 27.4462 26.5249C27.7739 26.1973 27.958 25.7528 27.958 25.2894C27.958 24.8259 27.7739 24.3815 27.4462 24.0538C27.1185 23.7261 26.6741 23.542 26.2106 23.542H15.7264Z" fill="#463BC1"/>
<path fill-rule="evenodd" clip-rule="evenodd" d="M0 4.32086C0 2.07024 1.82659 0.243652 4.07721 0.243652H33.2001C35.4508 0.243652 37.2773 2.07024 37.2773 4.32086V33.4438C37.2773 34.5251 36.8478 35.5622 36.0832 36.3268C35.3185 37.0914 34.2815 37.521 33.2001 37.521H4.07721C2.99587 37.521 1.95881 37.0914 1.19419 36.3268C0.429562 35.5622 0 34.5251 0 33.4438L0 4.32086ZM4.07721 3.7384H33.2001C33.3546 3.7384 33.5028 3.79977 33.612 3.909C33.7212 4.01823 33.7826 4.16638 33.7826 4.32086V33.4438C33.7826 33.5983 33.7212 33.7464 33.612 33.8556C33.5028 33.9649 33.3546 34.0262 33.2001 34.0262H4.07721C3.92273 34.0262 3.77458 33.9649 3.66535 33.8556C3.55612 33.7464 3.49475 33.5983 3.49475 33.4438V4.32086C3.49475 4.16638 3.55612 4.01823 3.66535 3.909C3.77458 3.79977 3.92273 3.7384 4.07721 3.7384Z" fill="#463BC1"/>
</g>
<defs>
<clipPath id="clip0_1_270">
<rect width="37.2773" height="37.2773" fill="white" transform="translate(0 0.243652)"/>
</clipPath>
</defs>
</svg>
