<svg width="38" height="38" viewBox="0 0 38 38" fill="none" xmlns="http://www.w3.org/2000/svg">
<g clip-path="url(#clip0_1_781)">
<path d="M18.6387 23.0975C21.9891 23.0975 24.7009 20.3858 24.7009 17.0353C24.7009 13.6849 21.9891 10.9731 18.6387 10.9731C15.2882 10.9731 12.5765 13.6849 12.5765 17.0353C12.5765 20.3858 15.2882 23.0975 18.6387 23.0975ZM22.7956 24.8296H22.3464C21.2205 25.3709 19.9702 25.6956 18.6387 25.6956C17.3072 25.6956 16.0622 25.3709 14.931 24.8296H14.4817C11.0393 24.8296 8.24634 27.6225 8.24634 31.065V32.6238C8.24634 34.0582 9.41006 35.2219 10.8444 35.2219H26.4329C27.8673 35.2219 29.031 34.0582 29.031 32.6238V31.065C29.031 27.6225 26.2381 24.8296 22.7956 24.8296Z" fill="#463BC1"/>
<path fill-rule="evenodd" clip-rule="evenodd" d="M0 4.07965C0 1.82903 1.82659 0.00244141 4.07721 0.00244141H33.2001C35.4508 0.00244141 37.2773 1.82903 37.2773 4.07965V33.2026C37.2773 34.2839 36.8478 35.321 36.0832 36.0856C35.3185 36.8502 34.2815 37.2798 33.2001 37.2798H4.07721C2.99587 37.2798 1.95881 36.8502 1.19419 36.0856C0.429562 35.321 0 34.2839 0 33.2026L0 4.07965ZM4.07721 3.49719H33.2001C33.3546 3.49719 33.5028 3.55856 33.612 3.66779C33.7212 3.77702 33.7826 3.92517 33.7826 4.07965V33.2026C33.7826 33.3571 33.7212 33.5052 33.612 33.6144C33.5028 33.7237 33.3546 33.785 33.2001 33.785H4.07721C3.92273 33.785 3.77458 33.7237 3.66535 33.6144C3.55612 33.5052 3.49475 33.3571 3.49475 33.2026V4.07965C3.49475 3.92517 3.55612 3.77702 3.66535 3.66779C3.77458 3.55856 3.92273 3.49719 4.07721 3.49719Z" fill="#463BC1"/>
</g>
<defs>
<clipPath id="clip0_1_781">
<rect width="37.2773" height="37.2773" fill="white" transform="translate(0 0.00244141)"/>
</clipPath>
</defs>
</svg>
