<svg width="27" height="26" viewBox="0 0 27 26" fill="none" xmlns="http://www.w3.org/2000/svg">
<path d="M24.8592 13.8417C24.6454 13.6089 24.5276 13.3097 24.5276 12.9999C24.5276 12.6901 24.6454 12.3909 24.8592 12.1582L26.5659 10.3217C26.7539 10.121 26.8707 9.86852 26.8995 9.60044C26.9282 9.33236 26.8674 9.06246 26.7259 8.82947L24.0592 4.4167C23.9191 4.18397 23.7057 3.99949 23.4495 3.88957C23.1934 3.77964 22.9074 3.74988 22.6325 3.80452L20.1259 4.28916C19.8069 4.3522 19.4749 4.30139 19.1924 4.14632C18.9099 3.99125 18.6965 3.74264 18.5925 3.44742L17.7792 1.11349C17.6898 0.860177 17.5193 0.640158 17.292 0.484534C17.0647 0.328909 16.7921 0.245551 16.5125 0.246241H11.1792C10.8884 0.231725 10.6007 0.30864 10.36 0.46524C10.1192 0.62184 9.93864 0.849515 9.84587 1.11349L9.0992 3.44742C8.9952 3.74264 8.78183 3.99125 8.49935 4.14632C8.21688 4.30139 7.88483 4.3522 7.56587 4.28916L4.99254 3.80452C4.73194 3.76929 4.46627 3.80863 4.229 3.91757C3.99173 4.02651 3.79347 4.20018 3.6592 4.4167L0.992537 8.82947C0.847418 9.05987 0.782167 9.32825 0.806114 9.59625C0.830062 9.86426 0.941981 10.1182 1.12587 10.3217L2.8192 12.1582C3.03296 12.3909 3.15085 12.6901 3.15085 12.9999C3.15085 13.3097 3.03296 13.6089 2.8192 13.8417L1.12587 15.6782C0.941981 15.8817 0.830062 16.1356 0.806114 16.4036C0.782167 16.6716 0.847418 16.94 0.992537 17.1704L3.6592 21.5832C3.79933 21.8159 4.0127 22.0004 4.26887 22.1103C4.52505 22.2202 4.81097 22.25 5.08587 22.1953L7.59254 21.7107C7.91149 21.6477 8.24354 21.6985 8.52602 21.8535C8.8085 22.0086 9.02187 22.2572 9.12587 22.5524L9.9392 24.8864C10.032 25.1503 10.2125 25.378 10.4533 25.5346C10.6941 25.6912 10.9818 25.7681 11.2725 25.7536H16.6059C16.8854 25.7543 17.1581 25.6709 17.3854 25.5153C17.6127 25.3597 17.7831 25.1397 17.8725 24.8864L18.6859 22.5524C18.7899 22.2572 19.0032 22.0086 19.2857 21.8535C19.5682 21.6985 19.9002 21.6477 20.2192 21.7107L22.7259 22.1953C23.0008 22.25 23.2867 22.2202 23.5429 22.1103C23.799 22.0004 24.0124 21.8159 24.1525 21.5832L26.8192 17.1704C26.9608 16.9374 27.0215 16.6675 26.9928 16.3994C26.964 16.1313 26.8473 15.8789 26.6592 15.6782L24.8592 13.8417ZM22.8725 15.5507L23.9392 16.6985L22.2325 19.5298L20.6592 19.2237C19.6989 19.036 18.7 19.192 17.852 19.6622C17.004 20.1324 16.3661 20.8841 16.0592 21.7745L15.5525 23.2029H12.1392L11.6592 21.749C11.3523 20.8585 10.7144 20.1069 9.86641 19.6367C9.01844 19.1665 8.0195 19.0105 7.0592 19.1982L5.48587 19.5043L3.75254 16.6857L4.8192 15.5379C5.47514 14.8364 5.83778 13.9283 5.83778 12.9872C5.83778 12.046 5.47514 11.1379 4.8192 10.4364L3.75254 9.2886L5.4592 6.48279L7.03254 6.78888C7.99283 6.97664 8.99177 6.82061 9.83974 6.35041C10.6877 5.8802 11.3257 5.12855 11.6325 4.23815L12.1392 2.79698H15.5525L16.0592 4.2509C16.3661 5.14131 17.004 5.89296 17.852 6.36316C18.7 6.83337 19.6989 6.9894 20.6592 6.80164L22.2325 6.49555L23.9392 9.32687L22.8725 10.4747C22.224 11.1746 21.8658 12.0774 21.8658 13.0127C21.8658 13.9479 22.224 14.8508 22.8725 15.5507ZM13.8459 7.89845C12.791 7.89845 11.7599 8.19765 10.8828 8.75821C10.0058 9.31876 9.32218 10.1155 8.91851 11.0477C8.51485 11.9798 8.40923 13.0056 8.61502 13.9952C8.8208 14.9848 9.32875 15.8938 10.0746 16.6072C10.8205 17.3207 11.7708 17.8065 12.8054 18.0034C13.84 18.2002 14.9123 18.0992 15.8868 17.7131C16.8614 17.327 17.6943 16.6731 18.2804 15.8342C18.8664 14.9952 19.1792 14.0089 19.1792 12.9999C19.1792 11.6469 18.6173 10.3494 17.6171 9.39264C16.6169 8.43593 15.2604 7.89845 13.8459 7.89845ZM13.8459 15.5507C13.3185 15.5507 12.8029 15.4011 12.3643 15.1208C11.9258 14.8405 11.584 14.4421 11.3822 13.9761C11.1804 13.51 11.1275 12.9971 11.2304 12.5023C11.3333 12.0075 11.5873 11.553 11.9603 11.1963C12.3332 10.8396 12.8083 10.5966 13.3256 10.4982C13.8429 10.3998 14.3791 10.4503 14.8664 10.6434C15.3536 10.8364 15.7701 11.1633 16.0631 11.5828C16.3561 12.0023 16.5125 12.4954 16.5125 12.9999C16.5125 13.6764 16.2316 14.3252 15.7315 14.8036C15.2314 15.2819 14.5531 15.5507 13.8459 15.5507Z" fill="white"/>
</svg>
